# xmcd
#
# Track frame offsets: 
#        150
#        8097
#        20299
#        30675
#        42354
#        54737
#        63846
#        73762
#        84640
#        102957
#        115841
#        127697
#        149456
#
# Disc length: 2145 seconds
#
# Revision: 1
# Processed by: cddbd v1.5.2PL0 Copyright (c) Steve Scherf et al.
# Submitted via: ExactAudioCopy v0.95b4
#
DISCID=a9085f0d
DTITLE=357 String Band - Ghost Town
DYEAR=2006
DGENRE=Bluegrass
TTITLE0=Pig In A Pen
TTITLE1=High Lonesome Blues
TTITLE2=Thank You
TTITLE3=Shotdown
TTITLE4=Wishin' I'd Die
TTITLE5=Here Comes Hell
TTITLE6=Only Going Where I've Gone
TTITLE7=Up Jump The Devil
TTITLE8=Stillest Hour
TTITLE9=Riot Act
TTITLE10=Evil On My Mind
TTITLE11=Raise The Moon
TTITLE12=Hard Times
EXTD=
EXTT0=
EXTT1=
EXTT2=
EXTT3=
EXTT4=
EXTT5=
EXTT6=
EXTT7=
EXTT8=
EXTT9=
EXTT10=
EXTT11=
EXTT12=
PLAYORDER=
